<?xml version="1.0" encoding="UTF-8" standalone="no"?>
<svg
   xmlns:dc="http://purl.org/dc/elements/1.1/"
   xmlns:cc="http://creativecommons.org/ns#"
   xmlns:rdf="http://www.w3.org/1999/02/22-rdf-syntax-ns#"
   xmlns:svg="http://www.w3.org/2000/svg"
   xmlns="http://www.w3.org/2000/svg"
   id="svg44"
   version="1.1"
   style="overflow:visible"
   viewBox="-240 -126 480 252"
   height="1008px"
   width="1920px">
  <metadata
     id="metadata50">
    <rdf:RDF>
      <cc:Work
         rdf:about="">
        <dc:format>image/svg+xml</dc:format>
        <dc:type
           rdf:resource="http://purl.org/dc/dcmitype/StillImage" />
      </cc:Work>
    </rdf:RDF>
  </metadata>
  <defs
     id="defs48" />
  <rect
     id="rect2"
     fill-opacity="0"
     fill="rgb(0,0,0)"
     height="252"
     width="480"
     y="-126"
     x="-240" />
  <svg
     id="svg42"
     version="1.1"
     y="-250"
     x="-250"
     viewBox="-250 -250 500 500"
     height="500"
     width="500"
     style="overflow:visible">
    <g
       style="fill:#ffffff;stroke-linejoin:round"
       id="g40">
      <path
         style="fill:#ffffff;fill-opacity:1;stroke:#444444;stroke-width:6;stroke-linecap:butt;stroke-linejoin:round;stroke-opacity:1"
         id="path4"
         d="m -91.502001,1.282999 c -0.61252,3.74888 45.97,15.1996 74.7391,20.3524 l 2.44499,-13.494 c -28.7691,-5.15279 -76.5918,-10.4831 -77.1841,-6.85833 z" />
      <path
         style="fill:#ffffff;fill-opacity:1;stroke:#444444;stroke-width:6;stroke-linecap:butt;stroke-linejoin:round;stroke-opacity:1"
         id="path6"
         d="m 91.502,1.282999 c 0.61253,3.74888 -45.97,15.1996 -74.7391,20.3524 l -2.44502,-13.494 c 28.7691,-5.15279 76.5918,-10.4831 77.1841,-6.85833 z" />
      <path
         style="fill:#ffffff;fill-opacity:1;stroke:#444444;stroke-width:6;stroke-linecap:butt;stroke-linejoin:round;stroke-opacity:1"
         id="path8"
         d="m 0,-75.677 c 3.81947,0.0652 6.89538,47.6756 6.89538,76.7392 h -13.7908 c 0,-29.0636 3.20231,-76.8024 6.89538,-76.7392 z" />
      <path
         style="fill:#ffffff;fill-opacity:1;stroke:#444444;stroke-width:6;stroke-linecap:butt;stroke-linejoin:round;stroke-opacity:1"
         id="path10"
         d="m -226.9998,26.747 c 0.23271,-3.79096 40.2314,-5.11072 200.685,1.87456 l -0.60328,19.4713 c -138.637,-12.2832 -200.307,-17.6804 -200.082,-21.3458 z" />
      <path
         style="fill:#ffffff;fill-opacity:1;stroke:#444444;stroke-width:6;stroke-linecap:butt;stroke-linejoin:round;stroke-opacity:1"
         id="path12"
         d="m 227,26.747 c -0.23271,-3.79096 -40.2314,-5.11072 -200.685,1.87456 l 0.60328,19.4713 c 138.638,-12.2832 200.307,-17.6804 200.082,-21.3458 z" />
      <path
         style="fill:#74a7f5;fill-opacity:1;stroke:none;stroke-linecap:butt;stroke-linejoin:round"
         id="path14"
         d="m -38.479001,35.55 c 1.71061,20.1454 18.2793,40.1276 38.479,40.1276 20.1997,0 36.7684,-19.9823 38.479,-40.1276 z" />
      <path
         style="fill:#ffffff;fill-opacity:1;stroke:none;stroke-linecap:butt;stroke-linejoin:round"
         id="path16"
         d="m 0,-9.476 c -21.3375,0 -38.6349,20.3902 -38.6349,41.6232 0,1.13218 0.0596,2.26729 0.15591,3.40198 12.6467,8.47715 28.8386,17.0328 38.479,17.0328 9.6404,0 25.8323,-8.55567 38.479,-17.0328 0.0963,-1.13469 0.15591,-2.2698 0.15591,-3.40198 0,-21.2331 -17.2974,-41.6232 -38.6349,-41.6232 z" />
      <path
         style="fill:#24dff9;fill-opacity:1;stroke:none;stroke-linecap:butt;stroke-linejoin:round"
         id="path18"
         d="m -9.997001,12.617999 8.50488,0.73294 v 12.546 l -10.5298,-1.37959 z" />
      <path
         style="fill:#24dff9;fill-opacity:1;stroke:none;stroke-linecap:butt;stroke-linejoin:round"
         id="path20"
         d="m 9.997,12.617999 -8.50486,0.73294 v 12.546 l 10.5298,-1.37959 z" />
      <path
         style="fill:#24dff9;fill-opacity:1;stroke:none;stroke-linecap:butt;stroke-linejoin:round"
         id="path22"
         d="m -19.671,12.642999 6.95308,0.0356 -2.75372,10.5401 -10.048,0.57656 z" />
      <path
         style="fill:#24dff9;fill-opacity:1;stroke:none;stroke-linecap:butt;stroke-linejoin:round"
         id="path24"
         d="m 19.670999,12.642999 -6.95306,0.0356 2.7537,10.5401 10.048,0.57656 z" />
      <path
         style="fill:none;stroke:#444444;stroke-width:6;stroke-linecap:butt;stroke-linejoin:round;stroke-opacity:1"
         id="path26"
         d="m 38.634999,32.148 c 0,21.233 -17.2974,43.5296 -38.6349,43.5296 -21.3375,0 -38.6349,-22.2966 -38.6349,-43.5296 0,-21.2331 17.2974,-41.6232 38.6349,-41.6232 21.3375,0 38.6349,20.3902 38.6349,41.6232 z" />
      <path
         style="fill:#ffffff;fill-opacity:1;stroke:#444444;stroke-width:6;stroke-linecap:butt;stroke-linejoin:round;stroke-opacity:1"
         id="path28"
         d="m -76.625,54.324999 a 20.3232,20.206 0 0 1 -20.3232,20.206 20.3232,20.206 0 0 1 -20.3232,-20.206 20.3232,20.206 0 0 1 20.3232,-20.206 20.3232,20.206 0 0 1 20.3232,20.206 z" />
      <path
         style="fill:#444444;fill-opacity:1;stroke:none;stroke-linecap:butt;stroke-linejoin:round"
         id="path30"
         d="m -86.231,54.324999 a 10.7175,10.6557 0 0 1 -10.7175,10.6557 10.7175,10.6557 0 0 1 -10.7175,-10.6557 10.7175,10.6557 0 0 1 10.7175,-10.6557 10.7175,10.6557 0 0 1 10.7175,10.6557 z" />
      <path
         style="fill:#ffffff;fill-opacity:1;stroke:#444444;stroke-width:6;stroke-linecap:butt;stroke-linejoin:round;stroke-opacity:1"
         id="path32"
         d="m 76.625,54.324999 a 20.3232,20.206 0 0 0 20.3232,20.206 20.3232,20.206 0 0 0 20.3232,-20.206 20.3232,20.206 0 0 0 -20.3232,-20.206 20.3232,20.206 0 0 0 -20.3232,20.206 z" />
      <path
         style="fill:#444444;fill-opacity:1;stroke:none;stroke-linecap:butt;stroke-linejoin:round"
         id="path34"
         d="m 86.231,54.324999 a 10.7175,10.6557 0 0 0 10.7175,10.6557 10.7175,10.6557 0 0 0 10.7175,-10.6557 10.7175,10.6557 0 0 0 -10.7175,-10.6557 10.7175,10.6557 0 0 0 -10.7175,10.6557 z" />
      <path
         style="fill:none;stroke:#444444;stroke-width:6;stroke-linecap:butt;stroke-linejoin:round;stroke-opacity:1"
         id="path36"
         d="m -76.625,54.324999 a 20.3232,20.206 0 0 1 -20.3232,20.206 20.3232,20.206 0 0 1 -20.3232,-20.206 20.3232,20.206 0 0 1 20.3232,-20.206 20.3232,20.206 0 0 1 20.3232,20.206 z" />
      <path
         style="fill:none;stroke:#444444;stroke-width:6;stroke-linecap:butt;stroke-linejoin:round;stroke-opacity:1"
         id="path38"
         d="m 76.625,54.324999 a 20.3232,20.206 0 0 0 20.3232,20.206 20.3232,20.206 0 0 0 20.3232,-20.206 20.3232,20.206 0 0 0 -20.3232,-20.206 20.3232,20.206 0 0 0 -20.3232,20.206 z" />
    </g>
  </svg>
</svg>
